<mxfile host="Electron" modified="2024-01-11T13:15:01.909Z" agent="Mozilla/5.0 (Windows NT 10.0; Win64; x64) AppleWebKit/537.36 (KHTML, like Gecko) draw.io/22.1.18 Chrome/120.0.6099.199 Electron/28.1.2 Safari/537.36" etag="bu8H-K6x-Hf2v-o9-LiB" version="22.1.18" type="device">
  <diagram name="Page-1" id="3aJXhkgUNo9f9CsKP81W">
    <mxGraphModel dx="1480" dy="877" grid="1" gridSize="10" guides="1" tooltips="1" connect="1" arrows="1" fold="1" page="1" pageScale="1" pageWidth="827" pageHeight="1169" math="0" shadow="0">
      <root>
        <mxCell id="0" />
        <mxCell id="1" parent="0" />
        <mxCell id="oP6oDOPRYKrIiUSOQLwz-1" style="edgeStyle=orthogonalEdgeStyle;rounded=0;orthogonalLoop=1;jettySize=auto;html=1;entryX=0.5;entryY=0;entryDx=0;entryDy=0;" edge="1" parent="1" source="oP6oDOPRYKrIiUSOQLwz-2" target="oP6oDOPRYKrIiUSOQLwz-14">
          <mxGeometry relative="1" as="geometry" />
        </mxCell>
        <mxCell id="oP6oDOPRYKrIiUSOQLwz-2" value="" style="rounded=0;whiteSpace=wrap;html=1;fillColor=none;strokeWidth=3;strokeColor=#a22a2a;" vertex="1" parent="1">
          <mxGeometry x="10" y="60" width="630" height="500" as="geometry" />
        </mxCell>
        <mxCell id="oP6oDOPRYKrIiUSOQLwz-3" value="PARK-1" style="rounded=0;whiteSpace=wrap;html=1;" vertex="1" parent="1">
          <mxGeometry x="40" y="120" width="120" height="60" as="geometry" />
        </mxCell>
        <mxCell id="oP6oDOPRYKrIiUSOQLwz-4" value="PARK-2&lt;br&gt;" style="rounded=0;whiteSpace=wrap;html=1;" vertex="1" parent="1">
          <mxGeometry x="40" y="200" width="120" height="60" as="geometry" />
        </mxCell>
        <mxCell id="oP6oDOPRYKrIiUSOQLwz-5" value="PARK-3" style="rounded=0;whiteSpace=wrap;html=1;" vertex="1" parent="1">
          <mxGeometry x="40" y="279.27" width="120" height="60" as="geometry" />
        </mxCell>
        <mxCell id="oP6oDOPRYKrIiUSOQLwz-6" value="PARK4" style="rounded=0;whiteSpace=wrap;html=1;" vertex="1" parent="1">
          <mxGeometry x="40" y="360" width="120" height="60" as="geometry" />
        </mxCell>
        <mxCell id="oP6oDOPRYKrIiUSOQLwz-7" value="PARK5" style="rounded=0;whiteSpace=wrap;html=1;" vertex="1" parent="1">
          <mxGeometry x="40" y="440" width="120" height="65" as="geometry" />
        </mxCell>
        <mxCell id="oP6oDOPRYKrIiUSOQLwz-8" style="edgeStyle=orthogonalEdgeStyle;rounded=0;orthogonalLoop=1;jettySize=auto;html=1;" edge="1" parent="1" source="oP6oDOPRYKrIiUSOQLwz-10" target="oP6oDOPRYKrIiUSOQLwz-12">
          <mxGeometry relative="1" as="geometry" />
        </mxCell>
        <mxCell id="oP6oDOPRYKrIiUSOQLwz-9" style="edgeStyle=orthogonalEdgeStyle;rounded=0;orthogonalLoop=1;jettySize=auto;html=1;entryX=1;entryY=0.5;entryDx=0;entryDy=0;" edge="1" parent="1" source="oP6oDOPRYKrIiUSOQLwz-10" target="oP6oDOPRYKrIiUSOQLwz-2">
          <mxGeometry relative="1" as="geometry">
            <Array as="points">
              <mxPoint x="466" y="345" />
            </Array>
          </mxGeometry>
        </mxCell>
        <mxCell id="oP6oDOPRYKrIiUSOQLwz-10" value="" style="shape=image;verticalLabelPosition=bottom;labelBackgroundColor=default;verticalAlign=top;aspect=fixed;imageAspect=0;image=https://static-00.iconduck.com/assets.00/kafka-icon-2048x935-cvu4503l.png;" vertex="1" parent="1">
          <mxGeometry x="360" y="269.99999999999994" width="171.98" height="78.54" as="geometry" />
        </mxCell>
        <mxCell id="oP6oDOPRYKrIiUSOQLwz-11" style="edgeStyle=orthogonalEdgeStyle;rounded=0;orthogonalLoop=1;jettySize=auto;html=1;" edge="1" parent="1" source="oP6oDOPRYKrIiUSOQLwz-12" target="oP6oDOPRYKrIiUSOQLwz-30">
          <mxGeometry relative="1" as="geometry">
            <Array as="points">
              <mxPoint x="240" y="110" />
              <mxPoint x="240" y="335" />
            </Array>
          </mxGeometry>
        </mxCell>
        <mxCell id="oP6oDOPRYKrIiUSOQLwz-12" value="" style="shape=image;verticalLabelPosition=bottom;labelBackgroundColor=default;verticalAlign=top;aspect=fixed;imageAspect=0;image=https://miro.medium.com/v2/resize:fit:960/0*-CIkZ-H9zspjt1HB.jpg;" vertex="1" parent="1">
          <mxGeometry x="470" y="65" width="159.99" height="90" as="geometry" />
        </mxCell>
        <mxCell id="oP6oDOPRYKrIiUSOQLwz-13" style="edgeStyle=orthogonalEdgeStyle;rounded=0;orthogonalLoop=1;jettySize=auto;html=1;entryX=0;entryY=0.5;entryDx=0;entryDy=0;" edge="1" parent="1" source="oP6oDOPRYKrIiUSOQLwz-14" target="oP6oDOPRYKrIiUSOQLwz-17">
          <mxGeometry relative="1" as="geometry" />
        </mxCell>
        <mxCell id="oP6oDOPRYKrIiUSOQLwz-14" value="" style="shape=image;verticalLabelPosition=bottom;labelBackgroundColor=default;verticalAlign=top;aspect=fixed;imageAspect=0;image=https://www.ovhcloud.com/sites/default/files/styles/text_media_horizontal/public/2021-09/ECX-1909_Hero_PostgreSQL_600x400%402x.png;" vertex="1" parent="1">
          <mxGeometry x="650" y="395.05999999999995" width="206.89" height="61.82" as="geometry" />
        </mxCell>
        <mxCell id="oP6oDOPRYKrIiUSOQLwz-15" style="edgeStyle=orthogonalEdgeStyle;rounded=0;orthogonalLoop=1;jettySize=auto;html=1;" edge="1" parent="1" source="oP6oDOPRYKrIiUSOQLwz-17" target="oP6oDOPRYKrIiUSOQLwz-18">
          <mxGeometry relative="1" as="geometry">
            <Array as="points">
              <mxPoint x="1000" y="470" />
              <mxPoint x="920" y="470" />
            </Array>
          </mxGeometry>
        </mxCell>
        <mxCell id="oP6oDOPRYKrIiUSOQLwz-16" style="edgeStyle=orthogonalEdgeStyle;rounded=0;orthogonalLoop=1;jettySize=auto;html=1;" edge="1" parent="1" source="oP6oDOPRYKrIiUSOQLwz-17" target="oP6oDOPRYKrIiUSOQLwz-39">
          <mxGeometry relative="1" as="geometry">
            <Array as="points">
              <mxPoint x="1000" y="470" />
              <mxPoint x="1080" y="470" />
            </Array>
          </mxGeometry>
        </mxCell>
        <mxCell id="oP6oDOPRYKrIiUSOQLwz-17" value="" style="shape=image;verticalLabelPosition=bottom;labelBackgroundColor=default;verticalAlign=top;aspect=fixed;imageAspect=0;image=https://logowik.com/content/uploads/images/click-house2603.jpg;" vertex="1" parent="1">
          <mxGeometry x="923.4499999999999" y="540" width="146.55" height="110" as="geometry" />
        </mxCell>
        <mxCell id="oP6oDOPRYKrIiUSOQLwz-18" value="" style="shape=image;verticalLabelPosition=bottom;labelBackgroundColor=default;verticalAlign=top;aspect=fixed;imageAspect=0;image=https://connect.aisingapore.org/wp-content/uploads/2022/12/image10.png;" vertex="1" parent="1">
          <mxGeometry x="821.98" y="301.46" width="187.19" height="93.6" as="geometry" />
        </mxCell>
        <mxCell id="oP6oDOPRYKrIiUSOQLwz-19" value="&lt;h1&gt;Real Time Araç park istasyon bilgileri&lt;/h1&gt;&lt;p&gt;5 farklı park noktasından geçen araçların anlık verisi ile geçen araç türüne göre ücret tahmini yapılcaktır&lt;/p&gt;" style="text;html=1;strokeColor=none;fillColor=none;spacing=5;spacingTop=-20;whiteSpace=wrap;overflow=hidden;rounded=0;" vertex="1" parent="1">
          <mxGeometry x="846.87" y="20" width="290" height="130" as="geometry" />
        </mxCell>
        <mxCell id="oP6oDOPRYKrIiUSOQLwz-20" style="edgeStyle=orthogonalEdgeStyle;rounded=0;orthogonalLoop=1;jettySize=auto;html=1;entryX=0.5;entryY=0;entryDx=0;entryDy=0;" edge="1" parent="1" source="oP6oDOPRYKrIiUSOQLwz-21" target="oP6oDOPRYKrIiUSOQLwz-31">
          <mxGeometry relative="1" as="geometry" />
        </mxCell>
        <mxCell id="oP6oDOPRYKrIiUSOQLwz-21" value="ARAC BİLGİSİ&lt;br&gt;https://pypi.org/project/faker-vehicle/&lt;br&gt;" style="swimlane;fontStyle=0;childLayout=stackLayout;horizontal=1;startSize=30;horizontalStack=0;resizeParent=1;resizeParentMax=0;resizeLast=0;collapsible=1;marginBottom=0;whiteSpace=wrap;html=1;" vertex="1" parent="1">
          <mxGeometry x="20" y="690" width="220" height="240" as="geometry" />
        </mxCell>
        <mxCell id="oP6oDOPRYKrIiUSOQLwz-22" value="Araç Plakası" style="text;strokeColor=none;fillColor=none;align=left;verticalAlign=middle;spacingLeft=4;spacingRight=4;overflow=hidden;points=[[0,0.5],[1,0.5]];portConstraint=eastwest;rotatable=0;whiteSpace=wrap;html=1;" vertex="1" parent="oP6oDOPRYKrIiUSOQLwz-21">
          <mxGeometry y="30" width="220" height="30" as="geometry" />
        </mxCell>
        <mxCell id="oP6oDOPRYKrIiUSOQLwz-23" value="Name" style="text;strokeColor=none;fillColor=none;align=left;verticalAlign=middle;spacingLeft=4;spacingRight=4;overflow=hidden;points=[[0,0.5],[1,0.5]];portConstraint=eastwest;rotatable=0;whiteSpace=wrap;html=1;" vertex="1" parent="oP6oDOPRYKrIiUSOQLwz-21">
          <mxGeometry y="60" width="220" height="30" as="geometry" />
        </mxCell>
        <mxCell id="oP6oDOPRYKrIiUSOQLwz-24" value="Model Yılı" style="text;strokeColor=none;fillColor=none;align=left;verticalAlign=middle;spacingLeft=4;spacingRight=4;overflow=hidden;points=[[0,0.5],[1,0.5]];portConstraint=eastwest;rotatable=0;whiteSpace=wrap;html=1;" vertex="1" parent="oP6oDOPRYKrIiUSOQLwz-21">
          <mxGeometry y="90" width="220" height="30" as="geometry" />
        </mxCell>
        <mxCell id="oP6oDOPRYKrIiUSOQLwz-25" value="Model" style="text;strokeColor=none;fillColor=none;align=left;verticalAlign=middle;spacingLeft=4;spacingRight=4;overflow=hidden;points=[[0,0.5],[1,0.5]];portConstraint=eastwest;rotatable=0;whiteSpace=wrap;html=1;" vertex="1" parent="oP6oDOPRYKrIiUSOQLwz-21">
          <mxGeometry y="120" width="220" height="30" as="geometry" />
        </mxCell>
        <mxCell id="oP6oDOPRYKrIiUSOQLwz-26" value="Kategori" style="text;strokeColor=none;fillColor=none;align=left;verticalAlign=middle;spacingLeft=4;spacingRight=4;overflow=hidden;points=[[0,0.5],[1,0.5]];portConstraint=eastwest;rotatable=0;whiteSpace=wrap;html=1;" vertex="1" parent="oP6oDOPRYKrIiUSOQLwz-21">
          <mxGeometry y="150" width="220" height="30" as="geometry" />
        </mxCell>
        <mxCell id="oP6oDOPRYKrIiUSOQLwz-27" value="Park ID" style="text;strokeColor=none;fillColor=none;align=left;verticalAlign=middle;spacingLeft=4;spacingRight=4;overflow=hidden;points=[[0,0.5],[1,0.5]];portConstraint=eastwest;rotatable=0;whiteSpace=wrap;html=1;" vertex="1" parent="oP6oDOPRYKrIiUSOQLwz-21">
          <mxGeometry y="180" width="220" height="30" as="geometry" />
        </mxCell>
        <mxCell id="oP6oDOPRYKrIiUSOQLwz-28" value="Zaman TS" style="text;strokeColor=none;fillColor=none;align=left;verticalAlign=middle;spacingLeft=4;spacingRight=4;overflow=hidden;points=[[0,0.5],[1,0.5]];portConstraint=eastwest;rotatable=0;whiteSpace=wrap;html=1;" vertex="1" parent="oP6oDOPRYKrIiUSOQLwz-21">
          <mxGeometry y="210" width="220" height="30" as="geometry" />
        </mxCell>
        <mxCell id="oP6oDOPRYKrIiUSOQLwz-29" value="" style="endArrow=none;dashed=1;html=1;rounded=0;" edge="1" parent="1">
          <mxGeometry width="50" height="50" relative="1" as="geometry">
            <mxPoint x="160" y="660" as="sourcePoint" />
            <mxPoint x="1069.3333333333335" y="660" as="targetPoint" />
          </mxGeometry>
        </mxCell>
        <mxCell id="oP6oDOPRYKrIiUSOQLwz-30" value="" style="rounded=1;whiteSpace=wrap;html=1;fillColor=none;strokeColor=#0066CC;strokeWidth=2;shadow=0;glass=0;" vertex="1" parent="1">
          <mxGeometry x="30" y="90" width="140" height="440" as="geometry" />
        </mxCell>
        <mxCell id="oP6oDOPRYKrIiUSOQLwz-31" value="Nifi" style="swimlane;fontStyle=0;childLayout=stackLayout;horizontal=1;startSize=30;horizontalStack=0;resizeParent=1;resizeParentMax=0;resizeLast=0;collapsible=1;marginBottom=0;whiteSpace=wrap;html=1;fontSize=23;" vertex="1" parent="1">
          <mxGeometry x="391.98" y="700" width="430" height="320" as="geometry">
            <mxRectangle x="391.98" y="700" width="70" height="40" as="alternateBounds" />
          </mxGeometry>
        </mxCell>
        <mxCell id="oP6oDOPRYKrIiUSOQLwz-32" value="&lt;font color=&quot;#0000cc&quot; style=&quot;font-size: 16px;&quot;&gt;&lt;b&gt;Clilchouse Entegrasyonu&lt;/b&gt;&lt;/font&gt;" style="swimlane;fontStyle=0;childLayout=stackLayout;horizontal=1;startSize=30;horizontalStack=0;resizeParent=1;resizeParentMax=0;resizeLast=0;collapsible=1;marginBottom=0;whiteSpace=wrap;html=1;" vertex="1" parent="oP6oDOPRYKrIiUSOQLwz-31">
          <mxGeometry y="30" width="430" height="120" as="geometry" />
        </mxCell>
        <mxCell id="oP6oDOPRYKrIiUSOQLwz-33" value="Postgresqlden&amp;nbsp; dakikalık veriler alınarak CH &#39;a yazılacak" style="text;strokeColor=none;fillColor=none;align=left;verticalAlign=middle;spacingLeft=4;spacingRight=4;overflow=hidden;points=[[0,0.5],[1,0.5]];portConstraint=eastwest;rotatable=0;whiteSpace=wrap;html=1;" vertex="1" parent="oP6oDOPRYKrIiUSOQLwz-32">
          <mxGeometry y="30" width="430" height="30" as="geometry" />
        </mxCell>
        <mxCell id="oP6oDOPRYKrIiUSOQLwz-34" value="Item 2" style="text;strokeColor=none;fillColor=none;align=left;verticalAlign=middle;spacingLeft=4;spacingRight=4;overflow=hidden;points=[[0,0.5],[1,0.5]];portConstraint=eastwest;rotatable=0;whiteSpace=wrap;html=1;" vertex="1" parent="oP6oDOPRYKrIiUSOQLwz-32">
          <mxGeometry y="60" width="430" height="30" as="geometry" />
        </mxCell>
        <mxCell id="oP6oDOPRYKrIiUSOQLwz-35" value="Item 3" style="text;strokeColor=none;fillColor=none;align=left;verticalAlign=middle;spacingLeft=4;spacingRight=4;overflow=hidden;points=[[0,0.5],[1,0.5]];portConstraint=eastwest;rotatable=0;whiteSpace=wrap;html=1;" vertex="1" parent="oP6oDOPRYKrIiUSOQLwz-32">
          <mxGeometry y="90" width="430" height="30" as="geometry" />
        </mxCell>
        <mxCell id="oP6oDOPRYKrIiUSOQLwz-36" value="Gelen verinin category&#39;isne göre belirli bir çarpanla çarpılacak ve ticketPrice değerine yazılacak. 2015 model ve altı için farklı ücretlendirme olacak" style="text;strokeColor=none;fillColor=none;align=left;verticalAlign=middle;spacingLeft=4;spacingRight=4;overflow=hidden;points=[[0,0.5],[1,0.5]];portConstraint=eastwest;rotatable=0;whiteSpace=wrap;html=1;fontSize=18;" vertex="1" parent="oP6oDOPRYKrIiUSOQLwz-31">
          <mxGeometry y="150" width="430" height="70" as="geometry" />
        </mxCell>
        <mxCell id="oP6oDOPRYKrIiUSOQLwz-37" value="Yazılan ticketprice mesaja eklenecek" style="text;strokeColor=none;fillColor=none;align=left;verticalAlign=middle;spacingLeft=4;spacingRight=4;overflow=hidden;points=[[0,0.5],[1,0.5]];portConstraint=eastwest;rotatable=0;whiteSpace=wrap;html=1;fontSize=18;" vertex="1" parent="oP6oDOPRYKrIiUSOQLwz-31">
          <mxGeometry y="220" width="430" height="50" as="geometry" />
        </mxCell>
        <mxCell id="oP6oDOPRYKrIiUSOQLwz-38" value="Oluşturulan mesaj postgresql&#39;e gönderilecek" style="text;strokeColor=none;fillColor=none;align=left;verticalAlign=middle;spacingLeft=4;spacingRight=4;overflow=hidden;points=[[0,0.5],[1,0.5]];portConstraint=eastwest;rotatable=0;whiteSpace=wrap;html=1;fontSize=18;" vertex="1" parent="oP6oDOPRYKrIiUSOQLwz-31">
          <mxGeometry y="270" width="430" height="50" as="geometry" />
        </mxCell>
        <mxCell id="oP6oDOPRYKrIiUSOQLwz-39" value="" style="shape=image;verticalLabelPosition=bottom;labelBackgroundColor=default;verticalAlign=top;aspect=fixed;imageAspect=0;image=https://upload.wikimedia.org/wikipedia/commons/thumb/a/a1/Grafana_logo.svg/800px-Grafana_logo.svg.png;" vertex="1" parent="1">
          <mxGeometry x="1040" y="309.33" width="83.95" height="85.73" as="geometry" />
        </mxCell>
      </root>
    </mxGraphModel>
  </diagram>
</mxfile>
